<?xml version="1.0" encoding="UTF-8"?>
<!DOCTYPE svg PUBLIC "-//W3C//DTD SVG 1.1//EN" "http://www.w3.org/Graphics/SVG/1.1/DTD/svg11.dtd">
<svg xmlns="http://www.w3.org/2000/svg" version="1.1" width="500px" height="500px" style="shape-rendering:geometricPrecision; text-rendering:geometricPrecision; image-rendering:optimizeQuality; fill-rule:evenodd; clip-rule:evenodd" xmlns:xlink="http://www.w3.org/1999/xlink">
<g><path style="opacity:0.999" fill="#1c1d1c" d="M 229.5,242.5 C 227.863,246.289 228.696,249.622 232,252.5C 232.417,251.244 233.25,250.577 234.5,250.5C 238.607,256.151 240.94,262.484 241.5,269.5C 241.843,271.483 241.176,272.817 239.5,273.5C 238.5,273.5 237.5,273.5 236.5,273.5C 236.198,270.627 235.531,267.961 234.5,265.5C 234.5,264.5 234.5,263.5 234.5,262.5C 234.5,261.833 234.167,261.5 233.5,261.5C 233.5,261.167 233.5,260.833 233.5,260.5C 233.5,259.833 233.167,259.5 232.5,259.5C 232.5,259.167 232.5,258.833 232.5,258.5C 232.5,257.833 232.167,257.5 231.5,257.5C 231.5,257.167 231.5,256.833 231.5,256.5C 231.5,255.833 231.167,255.5 230.5,255.5C 230.5,254.833 230.167,254.5 229.5,254.5C 229.5,253.833 229.167,253.5 228.5,253.5C 225.518,249.185 221.518,246.685 216.5,246C 217.942,246.377 218.942,247.21 219.5,248.5C 219.5,249.833 218.833,250.5 217.5,250.5C 215.167,249.833 212.833,249.167 210.5,248.5C 209.749,247.427 208.749,247.26 207.5,248C 208.044,248.717 208.711,249.217 209.5,249.5C 215.751,254.688 217.085,261.021 213.5,268.5C 212.957,268.56 212.624,268.893 212.5,269.5C 215.428,270.484 218.428,270.817 221.5,270.5C 223.292,270.366 224.958,270.699 226.5,271.5C 221.5,272.167 216.5,272.833 211.5,273.5C 206.595,275.247 201.595,276.58 196.5,277.5C 188.513,275.839 180.513,274.173 172.5,272.5C 166.016,274.051 159.682,273.718 153.5,271.5C 153.842,270.662 154.508,270.328 155.5,270.5C 158.713,270.274 161.713,270.107 164.5,270C 158.126,264.809 153.126,258.642 149.5,251.5C 148.895,249.519 147.895,249.185 146.5,250.5C 141.72,245.107 135.72,241.773 128.5,240.5C 129.952,239.698 131.618,239.198 133.5,239C 131.19,238.503 128.857,238.337 126.5,238.5C 113.654,239.073 100.988,240.907 88.5,244C 67.7689,249.133 47.4355,255.466 27.5,263C 26.1667,264.333 24.8333,265.667 23.5,267C 25.779,267.473 27.779,268.473 29.5,270C 26.7244,270.066 24.5577,271.232 23,273.5C 19.5566,280.706 19.7232,287.706 23.5,294.5C 23.7911,295.649 24.6244,296.316 26,296.5C 27.0698,296.472 27.9032,296.139 28.5,295.5C 31.1068,294.288 32.7735,292.288 33.5,289.5C 33.9724,287.469 34.9724,285.802 36.5,284.5C 37.842,285.793 39.5087,286.626 41.5,287C 53.9707,288.216 65.304,285.382 75.5,278.5C 77.0269,278.573 78.0269,277.906 78.5,276.5C 86.6722,269.493 94.0055,261.66 100.5,253C 105.5,250 110.5,247 115.5,244C 124.849,242.596 131.016,246.429 134,255.5C 135.15,258.768 135.984,262.101 136.5,265.5C 137.683,270.865 140.183,275.532 144,279.5C 144.089,276.151 145.256,275.651 147.5,278C 150.333,278.167 153.167,278.333 156,278.5C 163.828,277.711 171.661,277.544 179.5,278C 185.097,279.811 190.764,281.311 196.5,282.5C 199.438,282.432 202.105,281.766 204.5,280.5C 210.273,279.806 215.939,278.64 221.5,277C 226.155,276.501 230.821,276.334 235.5,276.5C 238.199,276.466 240.699,277.133 243,278.5C 243.464,277.906 243.631,277.239 243.5,276.5C 243.328,275.508 243.662,274.842 244.5,274.5C 245.906,274.973 246.573,275.973 246.5,277.5C 247.778,278.791 248.445,280.791 248.5,283.5C 247.23,285.611 245.23,286.611 242.5,286.5C 237.534,285.669 232.534,285.336 227.5,285.5C 227.09,289.902 225.423,293.735 222.5,297C 230.519,298.254 238.186,300.587 245.5,304C 248.172,307.749 247.172,310.416 242.5,312C 229.164,316.279 215.497,318.945 201.5,320C 175.625,321.536 149.791,323.37 124,325.5C 98.8584,323.352 73.6917,321.186 48.5,319C 35.9264,318.154 23.9264,315.154 12.5,310C 11.1337,307.618 11.467,305.452 13.5,303.5C 15.9123,302.423 18.2457,301.256 20.5,300C 17.6803,296.708 16.3469,292.875 16.5,288.5C 16.6621,286.473 16.4955,284.473 16,282.5C 15.2828,283.044 14.7828,283.711 14.5,284.5C 13.2942,287.139 11.2942,287.972 8.5,287C 10.749,285.648 12.4156,283.815 13.5,281.5C 14.5,281.5 15.5,281.5 16.5,281.5C 17.0138,279.488 17.1805,277.488 17,275.5C 16.6667,276.167 16.3333,276.833 16,277.5C 15.51,276.207 15.3433,274.873 15.5,273.5C 15.687,271.436 16.187,269.436 17,267.5C 19.1808,264.656 21.3475,261.822 23.5,259C 5.05227,203.952 19.0523,159.285 65.5,125C 98.177,106.118 132.177,103.451 167.5,117C 209.145,137.431 230.812,170.931 232.5,217.5C 232.71,226.024 231.71,234.357 229.5,242.5 Z M 221.5,216.5 C 220.761,216.369 220.094,216.536 219.5,217C 220.563,218.188 221.897,218.688 223.5,218.5C 224.87,218.856 225.87,219.69 226.5,221C 225.599,228.18 224.599,235.347 223.5,242.5C 219.44,241.99 215.44,241.156 211.5,240C 213.523,231.683 210.189,228.017 201.5,229C 198.898,229.883 196.731,231.383 195,233.5C 194.601,233.272 194.435,232.938 194.5,232.5C 192.317,223.874 186.651,219.207 177.5,218.5C 174.885,219.269 172.219,219.603 169.5,219.5C 168.092,218.939 166.592,218.605 165,218.5C 160.799,219.401 156.632,220.401 152.5,221.5C 152.5,220.833 152.167,220.5 151.5,220.5C 151.145,217.933 150.479,215.433 149.5,213C 149.759,211.739 150.426,210.739 151.5,210C 143.27,208.198 134.937,207.198 126.5,207C 128.473,206.505 130.473,206.338 132.5,206.5C 137.179,206.666 141.845,206.499 146.5,206C 142.56,204.985 138.56,204.485 134.5,204.5C 118.586,202.947 102.919,204.28 87.5,208.5C 86.7611,208.631 86.0944,208.464 85.5,208C 94.6197,198.594 100.12,187.428 102,174.5C 102.333,175.833 102.667,177.167 103,178.5C 105.962,182.136 108.962,185.802 112,189.5C 113.745,181.355 112.245,174.022 107.5,167.5C 110.415,166.189 112.915,166.856 115,169.5C 115.561,168.978 116.228,168.645 117,168.5C 118.954,170.434 121.12,170.767 123.5,169.5C 125.078,170.64 126.744,171.14 128.5,171C 123.973,163.243 117.306,158.743 108.5,157.5C 106.142,157.753 103.808,158.086 101.5,158.5C 105.102,153.516 108.435,148.183 111.5,142.5C 103.07,141.908 98.0701,145.908 96.5,154.5C 95.8333,155.167 95.1667,155.833 94.5,156.5C 94.1412,154.629 93.1412,153.129 91.5,152C 88.36,150.052 85.0267,149.052 81.5,149C 84.6404,152.812 87.6404,156.645 90.5,160.5C 79.7538,158.046 71.4205,161.38 65.5,170.5C 63.9153,171.002 63.4153,172.002 64,173.5C 64.9947,172.934 65.828,172.267 66.5,171.5C 67.9305,171.421 69.2638,171.754 70.5,172.5C 76.3353,169.761 82.3353,167.928 88.5,167C 84.2004,170.102 81.8671,174.269 81.5,179.5C 80.1905,183.351 80.1905,187.351 81.5,191.5C 82.3857,190.675 82.719,189.675 82.5,188.5C 85.2155,186.098 87.7155,183.432 90,180.5C 89.9056,177.499 91.2389,175.499 94,174.5C 94.9435,175.263 95.4435,176.263 95.5,177.5C 92.4796,187.701 86.8129,196.201 78.5,203C 73.5782,206.378 68.7449,209.878 64,213.5C 64.9883,205.688 64.655,198.021 63,190.5C 66.3333,192.5 69.6667,194.5 73,196.5C 72.6527,190.791 69.8194,186.624 64.5,184C 65.6492,182.256 66.9825,182.089 68.5,183.5C 80.2147,180.641 79.7147,178.308 67,176.5C 63.8338,177.167 61.0005,178.5 58.5,180.5C 59.3499,176.44 59.3499,172.106 58.5,167.5C 56.3886,168.605 55.0553,170.271 54.5,172.5C 53.5269,174.948 53.1936,177.615 53.5,180.5C 40.6892,178.94 40.6892,180.44 53.5,185C 44.5133,185.987 39.5133,190.987 38.5,200C 42.8554,197.925 46.8554,195.092 50.5,191.5C 51.1667,191.5 51.5,191.833 51.5,192.5C 50.8895,197.655 52.0562,202.322 55,206.5C 56.0356,201.682 57.369,197.015 59,192.5C 61.3789,201.345 60.0455,209.678 55,217.5C 49.7126,220.306 44.8793,223.64 40.5,227.5C 38.6783,226.571 37.3449,227.238 36.5,229.5C 34.8368,231.493 33.6701,233.826 33,236.5C 31.5441,242.644 30.0441,248.644 28.5,254.5C 23.6825,240.595 21.3492,226.261 21.5,211.5C 25.7794,210.625 30.1127,209.791 34.5,209C 32.5273,208.505 30.5273,208.338 28.5,208.5C 26.6208,207.659 24.6208,207.325 22.5,207.5C 23.9991,190.671 29.3324,175.171 38.5,161C 50.2467,160.885 61.9133,159.885 73.5,158C 63.5478,156.375 53.5478,155.042 43.5,154C 70.2558,122.078 104.256,109.745 145.5,117C 163.271,121.051 178.938,129.051 192.5,141C 181.535,140.659 170.535,141.326 159.5,143C 172.486,144.292 185.486,145.625 198.5,147C 216.121,166.344 225.454,189.177 226.5,215.5C 224.784,215.629 223.117,215.962 221.5,216.5 Z M 92.5,210.5 C 91.537,211.363 91.537,212.03 92.5,212.5C 95.6346,211.217 98.6346,211.217 101.5,212.5C 84.1007,214.911 67.7673,220.411 52.5,229C 48.4936,231.851 46.1602,235.685 45.5,240.5C 44.6829,242.969 44.1829,245.635 44,248.5C 41.4552,249.522 38.9552,250.688 36.5,252C 37.4158,252.278 38.0825,252.778 38.5,253.5C 36.7839,253.629 35.1172,253.962 33.5,254.5C 33.5,253.833 33.5,253.167 33.5,252.5C 36.0585,249.067 38.3919,245.401 40.5,241.5C 40.1543,240.304 39.6543,240.304 39,241.5C 39.8698,237.946 41.7031,234.779 44.5,232C 48.8333,228.833 53.1667,225.667 57.5,222.5C 62.7111,220.392 67.7111,218.058 72.5,215.5C 79.0016,213.208 85.6683,211.541 92.5,210.5 Z M 139.5,213.5 C 135.833,214.167 132.167,214.833 128.5,215.5C 122.484,215.593 116.484,215.926 110.5,216.5C 119.91,214.392 129.576,213.392 139.5,213.5 Z M 145.5,214.5 C 147.167,216.833 149.167,218.833 151.5,220.5C 150.833,221.167 150.167,221.833 149.5,222.5C 149.167,222.5 148.833,222.5 148.5,222.5C 137.789,224.519 127.455,227.519 117.5,231.5C 113.216,232.261 109.216,233.595 105.5,235.5C 104.5,235.5 103.5,235.5 102.5,235.5C 102.483,233.435 102.15,231.435 101.5,229.5C 102.032,225.693 102.032,221.693 101.5,217.5C 104.482,217.037 107.482,216.704 110.5,216.5C 109.391,217.29 108.058,217.79 106.5,218C 115.175,217.944 123.841,217.444 132.5,216.5C 136.79,215.575 141.124,214.909 145.5,214.5 Z M 161.5,224.5 C 159.785,226.882 157.785,228.882 155.5,230.5C 155.027,229.094 154.027,228.427 152.5,228.5C 151.833,227.833 151.167,227.167 150.5,226.5C 154.167,225.833 157.833,225.167 161.5,224.5 Z M 188.5,227.5 C 189.167,228.833 190.167,229.833 191.5,230.5C 191.66,232.199 191.494,233.866 191,235.5C 189.961,234.29 188.794,233.29 187.5,232.5C 187.5,232.167 187.5,231.833 187.5,231.5C 187.792,230.126 188.125,228.793 188.5,227.5 Z M 144.5,228.5 C 145.492,228.328 146.158,228.662 146.5,229.5C 143.379,231.448 140.379,233.615 137.5,236C 134.881,235.917 132.214,235.75 129.5,235.5C 128.167,234.833 126.833,234.167 125.5,233.5C 131.972,232.299 138.305,230.632 144.5,228.5 Z M 65.5,229.5 C 62.312,231.69 59.1454,234.024 56,236.5C 54.0073,238.818 52.8406,241.484 52.5,244.5C 51.8419,246.639 50.8419,248.639 49.5,250.5C 49.1667,250.5 48.8333,250.5 48.5,250.5C 47.8333,250.5 47.5,250.167 47.5,249.5C 48.9184,238.637 54.9184,231.97 65.5,229.5 Z M 147.5,232.5 C 148.492,232.328 149.158,232.662 149.5,233.5C 148.711,233.783 148.044,234.283 147.5,235C 151.803,235.448 153.136,237.615 151.5,241.5C 150.624,242.251 149.624,242.751 148.5,243C 149.056,243.383 149.389,243.883 149.5,244.5C 147.089,244.863 145.589,243.863 145,241.5C 143.927,237.9 144.76,234.9 147.5,232.5 Z M 170.5,232.5 C 172.014,238.892 173.681,245.225 175.5,251.5C 176.815,256.094 177.815,260.761 178.5,265.5C 176.734,261.715 175.234,257.715 174,253.5C 174.056,258.45 174.89,263.283 176.5,268C 174.255,267.805 172.422,266.638 171,264.5C 168.879,260.947 167.379,257.28 166.5,253.5C 166.59,250.848 165.924,248.515 164.5,246.5C 164.277,242.838 163.277,239.505 161.5,236.5C 161.5,236.167 161.5,235.833 161.5,235.5C 162.183,233.824 163.517,233.157 165.5,233.5C 166.367,239.299 167.7,244.966 169.5,250.5C 170.055,254.397 171.055,258.063 172.5,261.5C 172.562,256.924 171.895,252.591 170.5,248.5C 170.158,243.452 169.492,238.452 168.5,233.5C 168.842,232.662 169.508,232.328 170.5,232.5 Z M 176.5,232.5 C 178.769,240.972 181.435,249.306 184.5,257.5C 185.56,261.18 186.726,264.846 188,268.5C 188.49,267.207 188.657,265.873 188.5,264.5C 189.622,266.288 189.789,268.288 189,270.5C 188.075,269.953 187.242,269.287 186.5,268.5C 184.136,263.773 181.803,259.106 179.5,254.5C 178.158,252.639 177.158,250.639 176.5,248.5C 176.05,243.798 175.383,239.132 174.5,234.5C 174.5,233.167 175.167,232.5 176.5,232.5 Z M 204.5,233.5 C 202.915,234.002 202.415,235.002 203,236.5C 204.011,235.663 205.178,235.33 206.5,235.5C 207.833,237.833 207.833,240.167 206.5,242.5C 203.147,242.345 202.814,243.012 205.5,244.5C 206.745,244.969 206.579,245.303 205,245.5C 199.574,243.41 198.241,239.743 201,234.5C 202.133,232.789 203.633,232.289 205.5,233C 205.272,233.399 204.938,233.565 204.5,233.5 Z M 157.5,233.5 C 158.737,234.965 159.737,236.632 160.5,238.5C 160.5,239.167 160.5,239.833 160.5,240.5C 158.992,238.819 157.992,236.819 157.5,234.5C 157.5,234.167 157.5,233.833 157.5,233.5 Z M 181.5,233.5 C 182.778,233.782 183.778,234.449 184.5,235.5C 185.518,241.573 186.852,247.573 188.5,253.5C 188.5,254.167 188.5,254.833 188.5,255.5C 187.167,256.5 187.167,257.5 188.5,258.5C 188.5,260.5 188.5,262.5 188.5,264.5C 187.5,261.167 186.5,257.833 185.5,254.5C 184.674,247.374 183.341,240.374 181.5,233.5 Z M 187.5,235.5 C 189.784,235.975 191.784,236.975 193.5,238.5C 193.833,240.5 194.167,242.5 194.5,244.5C 194.134,249.468 193.634,249.134 193,243.5C 192.444,241.405 191.944,241.238 191.5,243C 193.592,251.146 193.759,259.313 192,267.5C 191.014,265.222 190.18,262.889 189.5,260.5C 190.776,257.697 190.776,255.03 189.5,252.5C 189.403,246.723 188.736,241.057 187.5,235.5 Z M 160.5,240.5 C 161.931,241.78 162.598,243.447 162.5,245.5C 161.069,244.22 160.402,242.553 160.5,240.5 Z M 127.5,253.5 C 131.008,260.992 132.008,268.658 130.5,276.5C 131.086,268.247 129.086,260.747 124.5,254C 121.97,252.578 119.303,252.245 116.5,253C 113.015,256.469 111.015,260.636 110.5,265.5C 109.117,271.244 109.45,276.91 111.5,282.5C 112.482,288.818 116.149,291.818 122.5,291.5C 120.562,293.163 118.228,293.829 115.5,293.5C 110.909,289.999 108.076,285.333 107,279.5C 105.24,269.799 106.906,260.799 112,252.5C 117.541,247.01 122.707,247.343 127.5,253.5 Z M 179.5,254.5 C 180.416,259.898 181.25,265.231 182,270.5C 180.955,269.627 180.122,268.627 179.5,267.5C 179.247,263.2 179.247,258.867 179.5,254.5 Z M 121.5,265.5 C 122.589,269.078 122.755,272.745 122,276.5C 121.184,277.823 120.017,278.489 118.5,278.5C 117.662,278.158 117.328,277.492 117.5,276.5C 118.88,277.706 120.047,277.373 121,275.5C 121.818,272.773 121.652,270.106 120.5,267.5C 119.473,266.209 118.473,266.209 117.5,267.5C 117.958,264.691 119.291,264.024 121.5,265.5 Z M 134.5,289.5 C 135.633,286.262 136.467,282.929 137,279.5C 137.969,283.406 137.136,286.739 134.5,289.5 Z M 134.5,289.5 C 134.573,291.027 133.906,292.027 132.5,292.5C 132.427,290.973 133.094,289.973 134.5,289.5 Z"/></g>
<g><path style="opacity:0.998" fill="#282928" d="M 101.5,158.5 C 103.808,158.086 106.142,157.753 108.5,157.5C 117.306,158.743 123.973,163.243 128.5,171C 126.744,171.14 125.078,170.64 123.5,169.5C 121.12,170.767 118.954,170.434 117,168.5C 116.228,168.645 115.561,168.978 115,169.5C 112.915,166.856 110.415,166.189 107.5,167.5C 112.245,174.022 113.745,181.355 112,189.5C 108.962,185.802 105.962,182.136 103,178.5C 102.667,177.167 102.333,175.833 102,174.5C 100.12,187.428 94.6197,198.594 85.5,208C 86.0944,208.464 86.7611,208.631 87.5,208.5C 88.9187,209.451 90.5853,209.784 92.5,209.5C 92.5,209.833 92.5,210.167 92.5,210.5C 85.6683,211.541 79.0016,213.208 72.5,215.5C 62.5782,218.293 53.2448,222.46 44.5,228C 36.6471,234.427 32.9805,242.594 33.5,252.5C 33.5,253.167 33.5,253.833 33.5,254.5C 32.2347,255.479 30.9014,256.479 29.5,257.5C 28.6143,256.675 28.281,255.675 28.5,254.5C 30.0441,248.644 31.5441,242.644 33,236.5C 33.6701,233.826 34.8368,231.493 36.5,229.5C 38.3217,230.429 39.6551,229.762 40.5,227.5C 44.8793,223.64 49.7126,220.306 55,217.5C 60.0455,209.678 61.3789,201.345 59,192.5C 57.369,197.015 56.0356,201.682 55,206.5C 52.0562,202.322 50.8895,197.655 51.5,192.5C 52.3382,192.158 52.6716,191.492 52.5,190.5C 52.5,189.833 52.1667,189.5 51.5,189.5C 50.6618,189.842 50.3284,190.508 50.5,191.5C 46.8554,195.092 42.8554,197.925 38.5,200C 39.5133,190.987 44.5133,185.987 53.5,185C 40.6892,180.44 40.6892,178.94 53.5,180.5C 53.5173,182.028 54.184,182.528 55.5,182C 54.5495,178.943 54.2161,175.777 54.5,172.5C 55.0553,170.271 56.3886,168.605 58.5,167.5C 59.3499,172.106 59.3499,176.44 58.5,180.5C 61.0005,178.5 63.8338,177.167 67,176.5C 79.7147,178.308 80.2147,180.641 68.5,183.5C 66.9825,182.089 65.6492,182.256 64.5,184C 69.8194,186.624 72.6527,190.791 73,196.5C 69.6667,194.5 66.3333,192.5 63,190.5C 64.655,198.021 64.9883,205.688 64,213.5C 68.7449,209.878 73.5782,206.378 78.5,203C 86.8129,196.201 92.4796,187.701 95.5,177.5C 95.4435,176.263 94.9435,175.263 94,174.5C 91.2389,175.499 89.9056,177.499 90,180.5C 87.7155,183.432 85.2155,186.098 82.5,188.5C 81.5233,185.713 81.19,182.713 81.5,179.5C 81.8671,174.269 84.2004,170.102 88.5,167C 82.3353,167.928 76.3353,169.761 70.5,172.5C 69.2638,171.754 67.9305,171.421 66.5,171.5C 65.8333,171.5 65.5,171.167 65.5,170.5C 71.4205,161.38 79.7538,158.046 90.5,160.5C 87.6404,156.645 84.6404,152.812 81.5,149C 85.0267,149.052 88.36,150.052 91.5,152C 93.1412,153.129 94.1412,154.629 94.5,156.5C 94.7828,157.289 95.2828,157.956 96,158.5C 96.49,157.207 96.6567,155.873 96.5,154.5C 98.0701,145.908 103.07,141.908 111.5,142.5C 108.435,148.183 105.102,153.516 101.5,158.5 Z"/></g>
<g><path style="opacity:0.998" fill="#444544" d="M 135.5,161.5 C 132.823,158.664 129.49,157.164 125.5,157C 127.956,155.383 130.456,153.883 133,152.5C 135.09,153.152 137.257,153.319 139.5,153C 140.91,153.368 141.91,154.201 142.5,155.5C 141.019,155.365 139.353,155.699 137.5,156.5C 136.05,157.85 135.383,159.516 135.5,161.5 Z"/></g>
<g><path style="opacity:0.451" fill="#8d8d8d" d="M 96.5,154.5 C 96.6567,155.873 96.49,157.207 96,158.5C 95.2828,157.956 94.7828,157.289 94.5,156.5C 95.1667,155.833 95.8333,155.167 96.5,154.5 Z"/></g>
<g><path style="opacity:1" fill="#5f5f5f" d="M 172.5,165.5 C 174.288,165.215 175.955,165.548 177.5,166.5C 175.803,167.364 174.637,168.697 174,170.5C 172.902,169.033 171.402,168.199 169.5,168C 170.571,167.148 171.571,166.315 172.5,165.5 Z"/></g>
<g><path style="opacity:0.329" fill="#9fa09f" d="M 65.5,170.5 C 65.5,171.167 65.8333,171.5 66.5,171.5C 65.828,172.267 64.9947,172.934 64,173.5C 63.4153,172.002 63.9153,171.002 65.5,170.5 Z"/></g>
<g><path style="opacity:0.671" fill="#5d5e5d" d="M 155.5,171.5 C 158.034,172.838 157.7,173.838 154.5,174.5C 153.692,174.192 153.025,173.692 152.5,173C 153.737,172.768 154.737,172.268 155.5,171.5 Z"/></g>
<g><path style="opacity:0.686" fill="#767676" d="M 54.5,172.5 C 54.2161,175.777 54.5495,178.943 55.5,182C 54.184,182.528 53.5173,182.028 53.5,180.5C 53.1936,177.615 53.5269,174.948 54.5,172.5 Z"/></g>
<g><path style="opacity:0.635" fill="#818281" d="M 81.5,179.5 C 81.19,182.713 81.5233,185.713 82.5,188.5C 82.719,189.675 82.3857,190.675 81.5,191.5C 80.1905,187.351 80.1905,183.351 81.5,179.5 Z"/></g>
<g><path style="opacity:0.267" fill="#8f918f" d="M 51.5,189.5 C 52.1667,189.5 52.5,189.833 52.5,190.5C 52.6716,191.492 52.3382,192.158 51.5,192.5C 51.5,191.833 51.1667,191.5 50.5,191.5C 50.3284,190.508 50.6618,189.842 51.5,189.5 Z"/></g>
<g><path style="opacity:0.251" fill="#d1d1d1" d="M 402.5,204.5 C 404.018,201.209 403.352,198.376 400.5,196C 397.183,195.502 393.85,195.335 390.5,195.5C 390.5,200.167 390.5,204.833 390.5,209.5C 388.053,204.381 388.053,199.214 390.5,194C 395.505,192.134 400.005,192.968 404,196.5C 404.167,197.667 404.333,198.833 404.5,200C 404.693,202.008 404.026,203.508 402.5,204.5 Z"/></g>
<g><path style="opacity:0.022" fill="#d7d7d7" d="M 300.5,195.5 C 299.167,195.5 297.833,195.5 296.5,195.5C 296.5,197.167 296.5,198.833 296.5,200.5C 292.167,201.315 289.834,199.648 289.5,195.5C 288.5,195.5 287.5,195.5 286.5,195.5C 286.5,200.5 286.5,205.5 286.5,210.5C 284.953,208.193 284.287,205.527 284.5,202.5C 283.165,196.921 285.165,194.421 290.5,195C 291.333,195.833 292.167,196.667 293,197.5C 295.244,194.051 297.744,193.384 300.5,195.5 Z"/></g>
<g><path style="opacity:0.173" fill="#cdcdcd" d="M 326.5,200.5 C 323.294,195.514 318.961,194.348 313.5,197C 310.704,202.011 311.037,206.844 314.5,211.5C 307.431,206.95 306.764,201.45 312.5,195C 317.646,192.496 322.146,193.329 326,197.5C 326.483,198.448 326.649,199.448 326.5,200.5 Z"/></g>
<g><path style="opacity:0.97" fill="#b2b2b2" d="M 249.5,194.5 C 253.074,193.908 255.074,195.408 255.5,199C 255.132,202.596 254.632,206.43 254,210.5C 252.644,211.38 251.144,211.714 249.5,211.5C 248.284,205.812 248.284,200.145 249.5,194.5 Z"/></g>
<g><path style="opacity:0.979" fill="#b0b0b0" d="M 300.5,195.5 C 301.117,195.611 301.617,195.944 302,196.5C 302.91,201.664 302.41,206.664 300.5,211.5C 299.167,212.833 297.833,212.833 296.5,211.5C 294.693,206.477 292.693,206.31 290.5,211C 288.934,211.765 287.601,211.598 286.5,210.5C 286.5,205.5 286.5,200.5 286.5,195.5C 287.5,195.5 288.5,195.5 289.5,195.5C 289.834,199.648 292.167,201.315 296.5,200.5C 296.5,198.833 296.5,197.167 296.5,195.5C 297.833,195.5 299.167,195.5 300.5,195.5 Z"/></g>
<g><path style="opacity:0.908" fill="#a6a6a6" d="M 445.5,208.5 C 447.466,209.255 447.8,210.421 446.5,212C 443.167,212.667 439.833,212.667 436.5,212C 435.944,211.617 435.611,211.117 435.5,210.5C 435.5,205.5 435.5,200.5 435.5,195.5C 439.226,195.177 442.893,195.511 446.5,196.5C 443.973,197.214 441.473,197.88 439,198.5C 438.316,199.784 438.483,200.951 439.5,202C 441.577,202.192 443.577,202.692 445.5,203.5C 444.15,204.95 442.484,205.617 440.5,205.5C 440.5,206.5 440.5,207.5 440.5,208.5C 442.167,208.5 443.833,208.5 445.5,208.5 Z"/></g>
<g><path style="opacity:1" fill="#a2a2a2" d="M 457.5,195.5 C 460.85,195.335 464.183,195.502 467.5,196C 468.5,197 469.5,198 470.5,199C 469.975,199.692 469.308,200.192 468.5,200.5C 466.513,198.499 464.18,197.665 461.5,198C 460.544,201.394 460.211,204.894 460.5,208.5C 466.211,209.62 469.044,207.287 469,201.5C 469.634,204.555 469.468,207.555 468.5,210.5C 460.145,214.843 456.145,212.176 456.5,202.5C 456.637,200.117 456.971,197.783 457.5,195.5 Z"/></g>
<g><path style="opacity:0.204" fill="#cdcdcd" d="M 445.5,208.5 C 443.833,208.5 442.167,208.5 440.5,208.5C 440.5,207.5 440.5,206.5 440.5,205.5C 442.484,205.617 444.15,204.95 445.5,203.5C 443.577,202.692 441.577,202.192 439.5,202C 438.483,200.951 438.316,199.784 439,198.5C 441.473,197.88 443.973,197.214 446.5,196.5C 442.893,195.511 439.226,195.177 435.5,195.5C 435.5,200.5 435.5,205.5 435.5,210.5C 433.319,205.33 433.153,199.997 435,194.5C 439,191.833 443,191.833 447,194.5C 446.652,197.543 446.818,200.543 447.5,203.5C 446.05,204.85 445.383,206.516 445.5,208.5 Z"/></g>
<g><path style="opacity:0.099" fill="#d4d4d4" d="M 276.5,209.5 C 276.344,204.872 274.01,201.872 269.5,200.5C 271.396,199.534 273.396,199.201 275.5,199.5C 275.64,197.876 274.973,196.71 273.5,196C 269.928,195.153 266.594,195.653 263.5,197.5C 263.574,195.589 264.574,194.422 266.5,194C 269.792,193.064 272.792,193.564 275.5,195.5C 274.869,199.288 275.535,202.955 277.5,206.5C 277.48,207.726 277.147,208.726 276.5,209.5 Z"/></g>
<g><path style="opacity:1" fill="#b8b7b7" d="M 354.5,207.5 C 353.378,206.053 351.878,205.053 350,204.5C 349.727,202.899 349.227,201.399 348.5,200C 351.06,198.794 351.56,197.294 350,195.5C 348.144,196.736 346.311,196.736 344.5,195.5C 344.371,198.803 344.037,202.137 343.5,205.5C 341.61,202.728 339.943,199.728 338.5,196.5C 337.675,195.614 336.675,195.281 335.5,195.5C 337.223,194.193 339.057,194.193 341,195.5C 342.085,194.707 343.252,194.04 344.5,193.5C 349.26,194.681 353.927,195.181 358.5,195C 359.096,199.675 357.762,203.841 354.5,207.5 Z"/></g>
<g><path style="opacity:0.114" fill="#c6c6c6" d="M 413.5,211.5 C 411.855,207.809 410.855,203.809 410.5,199.5C 412.984,192.564 417.65,190.73 424.5,194C 425.935,196.267 425.602,198.267 423.5,200C 424.982,202.592 424.648,204.925 422.5,207C 423.687,208.019 424.687,209.186 425.5,210.5C 423.465,212.013 421.131,212.679 418.5,212.5C 416.631,212.493 414.964,212.16 413.5,211.5 Z"/></g>
<g><path style="opacity:1" fill="#bdbdbd" d="M 468.5,210.5 C 469.468,207.555 469.634,204.555 469,201.5C 469.044,207.287 466.211,209.62 460.5,208.5C 460.211,204.894 460.544,201.394 461.5,198C 464.18,197.665 466.513,198.499 468.5,200.5C 469.308,200.192 469.975,199.692 470.5,199C 469.5,198 468.5,197 467.5,196C 464.183,195.502 460.85,195.335 457.5,195.5C 462.426,192.466 466.926,193.132 471,197.5C 472.457,200.366 472.79,203.366 472,206.5C 471.502,208.544 470.335,209.878 468.5,210.5 Z"/></g>
<g><path style="opacity:1" fill="#a6a6a6" d="M 380.5,209.5 C 380.047,210.458 379.381,211.292 378.5,212C 375.036,212.817 371.702,212.483 368.5,211C 368.456,208.204 368.123,205.371 367.5,202.5C 367.872,196.133 371.206,193.966 377.5,196C 378.308,196.308 378.975,196.808 379.5,197.5C 377.257,198.474 374.924,198.808 372.5,198.5C 372.33,199.822 372.663,200.989 373.5,202C 378.758,201.934 381.092,204.434 380.5,209.5 Z"/></g>
<g><path style="opacity:0.016" fill="#d3d3d3" d="M 380.5,209.5 C 381.092,204.434 378.758,201.934 373.5,202C 372.663,200.989 372.33,199.822 372.5,198.5C 374.924,198.808 377.257,198.474 379.5,197.5C 378.975,196.808 378.308,196.308 377.5,196C 371.206,193.966 367.872,196.133 367.5,202.5C 365.829,197.519 367.662,194.186 373,192.5C 375.175,193.255 377.341,194.088 379.5,195C 380.178,198.887 381.178,202.72 382.5,206.5C 382.058,207.739 381.391,208.739 380.5,209.5 Z"/></g>
<g><path style="opacity:1" fill="#919191" d="M 413.5,211.5 C 413.5,206.167 413.5,200.833 413.5,195.5C 417.226,195.177 420.893,195.511 424.5,196.5C 421.914,197.48 419.247,197.813 416.5,197.5C 416.5,199.167 416.5,200.833 416.5,202.5C 425.833,203.167 425.833,203.833 416.5,204.5C 416.5,206.167 416.5,207.833 416.5,209.5C 418.857,209.337 421.19,209.503 423.5,210C 420.854,210.497 418.187,210.664 415.5,210.5C 415.666,205.821 415.499,201.155 415,196.5C 414.826,201.684 414.326,206.684 413.5,211.5 Z"/></g>
<g><path style="opacity:1" fill="#aeaeae" d="M 276.5,209.5 C 275.942,210.79 274.942,211.623 273.5,212C 269.1,213.336 265.434,212.336 262.5,209C 262.57,205.084 262.903,201.25 263.5,197.5C 266.594,195.653 269.928,195.153 273.5,196C 274.973,196.71 275.64,197.876 275.5,199.5C 273.396,199.201 271.396,199.534 269.5,200.5C 274.01,201.872 276.344,204.872 276.5,209.5 Z"/></g>
<g><path style="opacity:0.691" fill="#696969" d="M 134.5,204.5 C 138.56,204.485 142.56,204.985 146.5,206C 141.845,206.499 137.179,206.666 132.5,206.5C 133.167,205.833 133.833,205.167 134.5,204.5 Z"/></g>
<g><path style="opacity:0.975" fill="#a1a1a1" d="M 335.5,195.5 C 336.675,195.281 337.675,195.614 338.5,196.5C 339.943,199.728 341.61,202.728 343.5,205.5C 344.037,202.137 344.371,198.803 344.5,195.5C 346.311,196.736 348.144,196.736 350,195.5C 351.56,197.294 351.06,198.794 348.5,200C 349.227,201.399 349.727,202.899 350,204.5C 351.878,205.053 353.378,206.053 354.5,207.5C 353.476,211.347 351.143,212.347 347.5,210.5C 345.598,212.151 343.598,212.484 341.5,211.5C 338.017,206.349 336.017,201.015 335.5,195.5 Z"/></g>
<g><path style="opacity:1" fill="#a5a5a5" d="M 402.5,204.5 C 399.386,206.393 396.386,208.559 393.5,211C 391.843,211.725 390.843,211.225 390.5,209.5C 390.5,204.833 390.5,200.167 390.5,195.5C 393.85,195.335 397.183,195.502 400.5,196C 403.352,198.376 404.018,201.209 402.5,204.5 Z"/></g>
<g><path style="opacity:0.956" fill="#a2a2a2" d="M 326.5,200.5 C 327.601,209.732 323.601,213.399 314.5,211.5C 311.037,206.844 310.704,202.011 313.5,197C 318.961,194.348 323.294,195.514 326.5,200.5 Z M 318.5,203.5 C 321.125,204.466 321.125,205.466 318.5,206.5C 317.438,205.575 317.438,204.575 318.5,203.5 Z"/></g>
<g><path style="opacity:0.034" fill="#d1d1d1" d="M 315.5,198.5 C 321.448,197.283 323.948,199.617 323,205.5C 320.523,210.368 317.523,210.701 314,206.5C 313.282,203.593 313.782,200.926 315.5,198.5 Z M 318.5,203.5 C 317.438,204.575 317.438,205.575 318.5,206.5C 321.125,205.466 321.125,204.466 318.5,203.5 Z"/></g>
<g><path style="opacity:0.714" fill="#757575" d="M 28.5,208.5 C 30.5273,208.338 32.5273,208.505 34.5,209C 30.1127,209.791 25.7794,210.625 21.5,211.5C 23.5078,209.917 25.8411,208.917 28.5,208.5 Z"/></g>
<g><path style="opacity:0.369" fill="#8d8e8d" d="M 100.5,209.5 C 100.5,208.833 100.167,208.5 99.5,208.5C 103.323,207.355 107.323,206.855 111.5,207C 107.867,208.049 104.201,208.882 100.5,209.5 Z"/></g>
<g><path style="opacity:0.452" fill="#7b7c7b" d="M 104.5,210.5 C 109.65,209.349 114.984,209.183 120.5,210C 116.187,210.735 111.853,211.235 107.5,211.5C 106.791,210.596 105.791,210.263 104.5,210.5 Z"/></g>
<g><path style="opacity:0.094" fill="#a1a1a1" d="M 95.5,209.5 C 96.209,208.596 97.209,208.263 98.5,208.5C 98.5,209.167 98.8333,209.5 99.5,209.5C 100.209,210.404 101.209,210.737 102.5,210.5C 103.209,211.404 104.209,211.737 105.5,211.5C 104.432,212.434 103.099,212.768 101.5,212.5C 98.6346,211.217 95.6346,211.217 92.5,212.5C 91.537,212.03 91.537,211.363 92.5,210.5C 94.5476,210.84 95.5476,210.507 95.5,209.5 Z"/></g>
<g><path style="opacity:0.205" fill="#bfbfbf" d="M 139.5,213.5 C 141.167,213.5 142.833,213.5 144.5,213.5C 145.167,213.5 145.5,213.833 145.5,214.5C 141.124,214.909 136.79,215.575 132.5,216.5C 131.432,215.566 130.099,215.232 128.5,215.5C 132.167,214.833 135.833,214.167 139.5,213.5 Z"/></g>
<g><path style="opacity:0.663" fill="#7d7d7d" d="M 128.5,215.5 C 130.099,215.232 131.432,215.566 132.5,216.5C 123.841,217.444 115.175,217.944 106.5,218C 108.058,217.79 109.391,217.29 110.5,216.5C 116.484,215.926 122.484,215.593 128.5,215.5 Z"/></g>
<g><path style="opacity:0.255" fill="#a3a3a3" d="M 144.5,213.5 C 142.833,213.5 141.167,213.5 139.5,213.5C 129.576,213.392 119.91,214.392 110.5,216.5C 107.482,216.704 104.482,217.037 101.5,217.5C 102.032,221.693 102.032,225.693 101.5,229.5C 100.833,229.5 100.5,229.167 100.5,228.5C 101.833,228.167 101.833,227.833 100.5,227.5C 99.3466,225.568 99.3466,223.568 100.5,221.5C 100.471,219.971 99.8045,218.804 98.5,218C 105.798,214.947 113.464,213.28 121.5,213C 129.345,212.178 137.011,212.344 144.5,213.5 Z"/></g>
<g><path style="opacity:0.22" fill="#969796" d="M 221.5,216.5 C 222.167,217.167 222.833,217.833 223.5,218.5C 221.897,218.688 220.563,218.188 219.5,217C 220.094,216.536 220.761,216.369 221.5,216.5 Z"/></g>
<g><path style="opacity:0.997" fill="#313131" d="M 194.5,232.5 C 194.167,232.5 193.833,232.5 193.5,232.5C 192.833,231.833 192.167,231.167 191.5,230.5C 190.167,229.833 189.167,228.833 188.5,227.5C 188.44,226.957 188.107,226.624 187.5,226.5C 186.212,228.299 186.212,229.965 187.5,231.5C 187.5,231.833 187.5,232.167 187.5,232.5C 187.5,233.5 187.5,234.5 187.5,235.5C 188.736,241.057 189.403,246.723 189.5,252.5C 189.5,253.167 189.167,253.5 188.5,253.5C 186.852,247.573 185.518,241.573 184.5,235.5C 183.437,232.016 182.437,228.516 181.5,225C 180.517,224.409 179.85,224.743 179.5,226C 180.108,228.553 180.775,231.053 181.5,233.5C 183.341,240.374 184.674,247.374 185.5,254.5C 185.737,255.791 185.404,256.791 184.5,257.5C 181.435,249.306 178.769,240.972 176.5,232.5C 176.287,229.525 175.287,226.858 173.5,224.5C 172.542,228.017 172.875,231.35 174.5,234.5C 175.383,239.132 176.05,243.798 176.5,248.5C 176.737,249.791 176.404,250.791 175.5,251.5C 173.681,245.225 172.014,238.892 170.5,232.5C 170.628,230.345 170.128,228.345 169,226.5C 167.272,228.819 167.105,231.153 168.5,233.5C 169.492,238.452 170.158,243.452 170.5,248.5C 170.672,249.492 170.338,250.158 169.5,250.5C 167.7,244.966 166.367,239.299 165.5,233.5C 165.101,230.029 163.601,229.696 161,232.5C 160.26,233.749 160.427,234.749 161.5,235.5C 161.5,235.833 161.5,236.167 161.5,236.5C 161.672,237.492 161.338,238.158 160.5,238.5C 159.737,236.632 158.737,234.965 157.5,233.5C 157.218,232.222 156.551,231.222 155.5,230.5C 157.785,228.882 159.785,226.882 161.5,224.5C 161.833,224.5 162.167,224.5 162.5,224.5C 164.153,224.34 165.486,223.674 166.5,222.5C 167.189,221.226 168.023,221.226 169,222.5C 169.483,221.552 169.649,220.552 169.5,219.5C 172.219,219.603 174.885,219.269 177.5,218.5C 186.651,219.207 192.317,223.874 194.5,232.5 Z"/></g>
<g><path style="opacity:0.459" fill="#aaabaa" d="M 151.5,220.5 C 152.167,220.5 152.5,220.833 152.5,221.5C 151.791,222.404 150.791,222.737 149.5,222.5C 150.167,221.833 150.833,221.167 151.5,220.5 Z"/></g>
<g><path style="opacity:0.173" fill="#adadad" d="M 72.5,215.5 C 67.7111,218.058 62.7111,220.392 57.5,222.5C 53.1667,225.667 48.8333,228.833 44.5,232C 41.7031,234.779 39.8698,237.946 39,241.5C 39.6543,240.304 40.1543,240.304 40.5,241.5C 38.3919,245.401 36.0585,249.067 33.5,252.5C 32.9805,242.594 36.6471,234.427 44.5,228C 53.2448,222.46 62.5782,218.293 72.5,215.5 Z"/></g>
<g><path style="opacity:0.329" fill="#969796" d="M 166.5,222.5 C 165.486,223.674 164.153,224.34 162.5,224.5C 163.183,222.824 164.517,222.157 166.5,222.5 Z"/></g>
<g><path style="opacity:0.237" fill="#adadad" d="M 148.5,222.5 C 138.436,226.073 128.103,229.073 117.5,231.5C 127.455,227.519 137.789,224.519 148.5,222.5 Z"/></g>
<g><path style="opacity:0.068" fill="#bcbdbc" d="M 176.5,232.5 C 175.167,232.5 174.5,233.167 174.5,234.5C 172.875,231.35 172.542,228.017 173.5,224.5C 175.287,226.858 176.287,229.525 176.5,232.5 Z"/></g>
<g><path style="opacity:0.05" fill="#b7b8b7" d="M 184.5,235.5 C 183.778,234.449 182.778,233.782 181.5,233.5C 180.775,231.053 180.108,228.553 179.5,226C 179.85,224.743 180.517,224.409 181.5,225C 182.437,228.516 183.437,232.016 184.5,235.5 Z"/></g>
<g><path style="opacity:0.278" fill="#a4a5a4" d="M 71.5,227.5 C 71.8425,225.775 72.8425,225.275 74.5,226C 73.4734,226.513 72.4734,227.013 71.5,227.5 Z"/></g>
<g><path style="opacity:0.078" fill="#bbbbbb" d="M 98.5,228.5 C 96.4378,227.495 95.6045,225.829 96,223.5C 97.1203,225.03 97.9536,226.697 98.5,228.5 Z"/></g>
<g><path style="opacity:0.314" fill="#a7a7a7" d="M 150.5,226.5 C 151.167,227.167 151.833,227.833 152.5,228.5C 151.167,228.5 149.833,228.5 148.5,228.5C 148.5,227.167 149.167,226.5 150.5,226.5 Z"/></g>
<g><path style="opacity:0.076" fill="#b2b3b2" d="M 170.5,232.5 C 169.508,232.328 168.842,232.662 168.5,233.5C 167.105,231.153 167.272,228.819 169,226.5C 170.128,228.345 170.628,230.345 170.5,232.5 Z"/></g>
<g><path style="opacity:0.055" fill="#b2b3b2" d="M 188.5,227.5 C 188.125,228.793 187.792,230.126 187.5,231.5C 186.212,229.965 186.212,228.299 187.5,226.5C 188.107,226.624 188.44,226.957 188.5,227.5 Z"/></g>
<g><path style="opacity:0.725" fill="#787878" d="M 40.5,227.5 C 39.6551,229.762 38.3217,230.429 36.5,229.5C 37.3449,227.238 38.6783,226.571 40.5,227.5 Z"/></g>
<g><path style="opacity:0.275" fill="#a7a8a7" d="M 144.5,228.5 C 145.209,227.596 146.209,227.263 147.5,227.5C 147.672,228.492 147.338,229.158 146.5,229.5C 146.158,228.662 145.492,228.328 144.5,228.5 Z"/></g>
<g><path style="opacity:0.021" fill="#c5c6c5" d="M 191.5,230.5 C 192.167,231.167 192.833,231.833 193.5,232.5C 193.5,234.5 193.5,236.5 193.5,238.5C 191.784,236.975 189.784,235.975 187.5,235.5C 187.5,234.5 187.5,233.5 187.5,232.5C 188.794,233.29 189.961,234.29 191,235.5C 191.494,233.866 191.66,232.199 191.5,230.5 Z"/></g>
<g><path style="opacity:0.322" fill="#9d9d9d" d="M 147.5,232.5 C 148.601,231.402 149.934,231.235 151.5,232C 150.956,232.717 150.289,233.217 149.5,233.5C 149.158,232.662 148.492,232.328 147.5,232.5 Z"/></g>
<g><path style="opacity:0.031" fill="#b9bab9" d="M 165.5,233.5 C 163.517,233.157 162.183,233.824 161.5,235.5C 160.427,234.749 160.26,233.749 161,232.5C 163.601,229.696 165.101,230.029 165.5,233.5 Z"/></g>
<g><path style="opacity:0.467" fill="#8f8f8f" d="M 99.5,231.5 C 100.613,232.946 100.78,234.613 100,236.5C 99.2086,235.255 98.7086,233.922 98.5,232.5C 99.1667,232.5 99.5,232.167 99.5,231.5 Z"/></g>
<g><path style="opacity:0.78" fill="#747574" d="M 117.5,231.5 C 113.915,233.806 109.915,235.139 105.5,235.5C 109.216,233.595 113.216,232.261 117.5,231.5 Z"/></g>
<g><path style="opacity:0.136" fill="#b2b3b2" d="M 125.5,233.5 C 126.833,234.167 128.167,234.833 129.5,235.5C 126.15,235.665 122.817,235.498 119.5,235C 121.518,234.495 123.518,233.995 125.5,233.5 Z"/></g>
<g><path style="opacity:0.561" fill="#858685" d="M 204.5,233.5 C 205.167,234.167 205.833,234.833 206.5,235.5C 205.178,235.33 204.011,235.663 203,236.5C 202.415,235.002 202.915,234.002 204.5,233.5 Z"/></g>
<g><path style="opacity:0.355" fill="#a9a9a9" d="M 332.5,236.5 C 333.833,237.833 333.833,239.167 332.5,240.5C 332.672,239.508 332.338,238.842 331.5,238.5C 331.833,237.833 332.167,237.167 332.5,236.5 Z"/></g>
<g><path style="opacity:0.475" fill="#818181" d="M 126.5,238.5 C 128.857,238.337 131.19,238.503 133.5,239C 131.618,239.198 129.952,239.698 128.5,240.5C 126.801,240.66 125.134,240.494 123.5,240C 124.737,239.768 125.737,239.268 126.5,238.5 Z"/></g>
<g><path style="opacity:0.318" fill="#aeaeae" d="M 351.5,236.5 C 352.465,237.721 352.298,239.054 351,240.5C 350.517,239.552 350.351,238.552 350.5,237.5C 351.167,237.5 351.5,237.167 351.5,236.5 Z"/></g>
<g><path style="opacity:0.325" fill="#a5a5a5" d="M 396.5,240.5 C 396.013,241.473 395.513,242.473 395,243.5C 394.275,241.843 394.775,240.843 396.5,240.5 Z"/></g>
<g><path style="opacity:0.741" fill="#616261" d="M 161.5,236.5 C 163.277,239.505 164.277,242.838 164.5,246.5C 164.5,247.167 164.167,247.5 163.5,247.5C 163.672,246.508 163.338,245.842 162.5,245.5C 162.598,243.447 161.931,241.78 160.5,240.5C 160.5,239.833 160.5,239.167 160.5,238.5C 161.338,238.158 161.672,237.492 161.5,236.5 Z"/></g>
<g><path style="opacity:0.2" fill="#a2a2a2" d="M 206.5,242.5 C 206.167,243.167 205.833,243.833 205.5,244.5C 202.814,243.012 203.147,242.345 206.5,242.5 Z"/></g>
<g><path style="opacity:0.22" fill="#babbba" d="M 323.5,242.5 C 322.833,243.167 322.833,243.167 323.5,242.5 Z"/></g>
<g><path style="opacity:0.212" fill="#b6b6b6" d="M 323.5,242.5 C 324.919,241.549 326.585,241.216 328.5,241.5C 328.167,242.167 327.833,242.833 327.5,243.5C 326.292,242.766 324.959,242.433 323.5,242.5 Z"/></g>
<g><path style="opacity:1" fill="#3b3b3b" d="M 351.5,236.5 C 350.833,236.5 350.5,236.833 350.5,237.5C 349.263,238.965 348.263,240.632 347.5,242.5C 346.549,243.919 346.216,245.585 346.5,247.5C 345.85,249.435 345.517,251.435 345.5,253.5C 345.5,253.833 345.5,254.167 345.5,254.5C 344.167,254.5 343.5,253.833 343.5,252.5C 343.5,251.833 343.5,251.167 343.5,250.5C 343.655,247.147 342.988,246.814 341.5,249.5C 340.833,250.5 340.167,251.5 339.5,252.5C 339.5,251.167 339.5,249.833 339.5,248.5C 340.129,245.871 341.795,244.204 344.5,243.5C 345.261,239.635 347.261,236.635 350.5,234.5C 351.298,234.957 351.631,235.624 351.5,236.5 Z M 343.5,250.5 C 342.075,252.031 341.409,251.698 341.5,249.5C 342.988,246.814 343.655,247.147 343.5,250.5 Z"/></g>
<g><path style="opacity:0.387" fill="#adadad" d="M 375.5,240.5 C 375.897,239.475 376.563,239.308 377.5,240C 379.891,243.28 380.058,246.78 378,250.5C 377.623,251.942 376.79,252.942 375.5,253.5C 376.692,250.592 377.692,247.592 378.5,244.5C 378.547,242.962 377.88,241.962 376.5,241.5C 376.5,240.833 376.167,240.5 375.5,240.5 Z"/></g>
<g><path style="opacity:0.378" fill="#a8a8a8" d="M 362.5,241.5 C 361.675,243.322 361.342,244.989 361.5,246.5C 361.167,245.667 360.833,244.833 360.5,244C 360.684,242.624 361.351,241.791 362.5,241.5 Z"/></g>
<g><path style="opacity:1" fill="#232323" d="M 332.5,236.5 C 332.167,237.167 331.833,237.833 331.5,238.5C 331.167,239.167 330.833,239.833 330.5,240.5C 329.596,241.209 329.263,242.209 329.5,243.5C 329.5,243.833 329.5,244.167 329.5,244.5C 328.566,245.568 328.232,246.901 328.5,248.5C 328.5,249.167 328.5,249.833 328.5,250.5C 327.833,251.5 327.167,252.5 326.5,253.5C 326.5,252.833 326.5,252.167 326.5,251.5C 326.5,250.833 326.5,250.167 326.5,249.5C 326.325,247.379 326.659,245.379 327.5,243.5C 327.833,242.833 328.167,242.167 328.5,241.5C 328.378,238.743 329.545,236.743 332,235.5C 332.399,235.728 332.565,236.062 332.5,236.5 Z"/></g>
<g><path style="opacity:0.365" fill="#b3b3b3" d="M 386.5,240.5 C 385.312,241.364 384.145,242.364 383,243.5C 383.077,244.738 382.911,245.738 382.5,246.5C 380.954,242.699 382.287,240.699 386.5,240.5 Z"/></g>
<g><path style="opacity:0.565" fill="#818281" d="M 53.5,249.5 C 53.62,248.414 54.2867,247.747 55.5,247.5C 64.0993,245.014 72.7659,243.181 81.5,242C 72.1483,244.504 62.815,247.004 53.5,249.5 Z"/></g>
<g><path style="opacity:0.6" fill="#696a69" d="M 103.5,247.5 C 103.158,246.662 102.492,246.328 101.5,246.5C 103.225,245.095 105.225,244.595 107.5,245C 106.016,245.662 104.683,246.496 103.5,247.5 Z"/></g>
<g><path style="opacity:0.99" fill="#4c4d4c" d="M 131.5,243.5 C 140.888,245.723 146.721,251.39 149,260.5C 147.542,258.04 145.709,255.873 143.5,254C 140.113,250.947 136.447,248.28 132.5,246C 131.748,245.329 131.414,244.496 131.5,243.5 Z"/></g>
<g><path style="opacity:0.412" fill="#9d9d9d" d="M 330.5,240.5 C 330.369,241.239 330.536,241.906 331,242.5C 331.278,241.584 331.778,240.918 332.5,240.5C 333.183,242.176 334.517,242.843 336.5,242.5C 336.33,243.822 336.663,244.989 337.5,246C 336.423,246.47 335.423,246.303 334.5,245.5C 334.5,245.167 334.5,244.833 334.5,244.5C 334.265,243.903 333.765,243.57 333,243.5C 331.491,245.207 329.991,246.873 328.5,248.5C 328.232,246.901 328.566,245.568 329.5,244.5C 330.833,244.167 330.833,243.833 329.5,243.5C 329.263,242.209 329.596,241.209 330.5,240.5 Z"/></g>
<g><path style="opacity:0.416" fill="#a7a7a7" d="M 347.5,242.5 C 348.133,242.88 348.8,243.213 349.5,243.5C 348.479,244.901 347.479,246.235 346.5,247.5C 346.216,245.585 346.549,243.919 347.5,242.5 Z"/></g>
<g><path style="opacity:0.976" fill="#5c5c5c" d="M 375.5,240.5 C 376.167,240.5 376.5,240.833 376.5,241.5C 373.075,244.687 371.741,248.687 372.5,253.5C 373.5,253.5 374.5,253.5 375.5,253.5C 373.965,254.788 372.299,254.788 370.5,253.5C 369.523,249.228 370.357,245.228 373,241.5C 373.671,240.748 374.504,240.414 375.5,240.5 Z"/></g>
<g><path style="opacity:0.999" fill="#1e1f1e" d="M 101.5,246.5 C 102.492,246.328 103.158,246.662 103.5,247.5C 96.3653,253.802 89.6986,260.636 83.5,268C 74.2656,272.356 64.599,275.19 54.5,276.5C 52.0733,276.523 49.74,277.023 47.5,278C 51.6888,278.812 55.6888,278.645 59.5,277.5C 60.5,277.5 61.5,277.5 62.5,277.5C 63.791,277.263 64.791,277.596 65.5,278.5C 56.723,281.964 47.723,282.798 38.5,281C 35.9186,277.947 34.0853,274.447 33,270.5C 31.6487,268.981 30.1487,267.648 28.5,266.5C 40.404,262.857 52.404,259.524 64.5,256.5C 65.2389,256.369 65.9056,256.536 66.5,257C 65.3044,257.654 65.3044,258.154 66.5,258.5C 67.1067,258.376 67.44,258.043 67.5,257.5C 68.4916,257.672 69.1583,257.338 69.5,256.5C 80.3713,253.765 91.038,250.431 101.5,246.5 Z"/></g>
<g><path style="opacity:0.373" fill="#919191" d="M 157.5,234.5 C 157.992,236.819 158.992,238.819 160.5,240.5C 160.402,242.553 161.069,244.22 162.5,245.5C 162.5,246.167 162.5,246.833 162.5,247.5C 161.903,247.735 161.57,248.235 161.5,249C 163.067,253.422 163.901,257.922 164,262.5C 161.667,254.833 159.333,247.167 157,239.5C 156.22,237.613 156.387,235.946 157.5,234.5 Z"/></g>
<g><path style="opacity:0.251" fill="#969696" d="M 210.5,248.5 C 209.833,248.5 209.5,248.833 209.5,249.5C 208.711,249.217 208.044,248.717 207.5,248C 208.749,247.26 209.749,247.427 210.5,248.5 Z"/></g>
<g><path style="opacity:0.996" fill="#5a5a5a" d="M 362.5,252.5 C 361.5,252.833 360.833,253.5 360.5,254.5C 360.44,255.043 360.107,255.376 359.5,255.5C 358.479,254.998 358.312,254.332 359,253.5C 362.025,249.976 364.858,246.309 367.5,242.5C 367.192,241.692 366.692,241.025 366,240.5C 364.989,241.337 363.822,241.67 362.5,241.5C 365.246,238.633 367.58,238.967 369.5,242.5C 368.634,246.911 366.301,250.244 362.5,252.5 Z"/></g>
<g><path style="opacity:0.941" fill="#6c6d6c" d="M 45.5,240.5 C 44.9455,244.012 45.6122,247.012 47.5,249.5C 47.5,250.167 47.8333,250.5 48.5,250.5C 48.1583,251.338 47.4916,251.672 46.5,251.5C 44.9516,250.266 44.2849,250.266 44.5,251.5C 44.1583,252.338 43.4916,252.672 42.5,252.5C 42.44,251.957 42.1067,251.624 41.5,251.5C 40.7348,252.612 39.7348,253.279 38.5,253.5C 38.0825,252.778 37.4158,252.278 36.5,252C 38.9552,250.688 41.4552,249.522 44,248.5C 44.1829,245.635 44.6829,242.969 45.5,240.5 Z"/></g>
<g><path style="opacity:1" fill="#323232" d="M 324.5,246.5 C 323.508,246.328 322.842,246.662 322.5,247.5C 321.596,248.209 321.263,249.209 321.5,250.5C 320.833,251.5 320.167,252.5 319.5,253.5C 318.316,249.828 319.483,246.828 323,244.5C 323.717,245.044 324.217,245.711 324.5,246.5 Z"/></g>
<g><path style="opacity:0.125" fill="#adadad" d="M 324.5,246.5 C 325.55,246.905 325.55,247.571 324.5,248.5C 323.643,249.425 322.643,250.092 321.5,250.5C 321.263,249.209 321.596,248.209 322.5,247.5C 322.842,246.662 323.508,246.328 324.5,246.5 Z"/></g>
<g><path style="opacity:0.678" fill="#7e7f7e" d="M 52.5,244.5 C 52.5,246.5 52.5,248.5 52.5,250.5C 51.5,250.5 50.5,250.5 49.5,250.5C 50.8419,248.639 51.8419,246.639 52.5,244.5 Z"/></g>
<g><path style="opacity:0.588" fill="#9b9c9b" d="M 149.5,251.5 C 148.105,252.815 147.105,252.481 146.5,250.5C 147.895,249.185 148.895,249.519 149.5,251.5 Z"/></g>
<g><path style="opacity:1" fill="#5b5c5b" d="M 229.5,242.5 C 229.351,243.552 229.517,244.552 230,245.5C 231.707,247.037 233.207,248.704 234.5,250.5C 233.25,250.577 232.417,251.244 232,252.5C 228.696,249.622 227.863,246.289 229.5,242.5 Z"/></g>
<g><path style="opacity:0.251" fill="#a0a0a0" d="M 339.5,248.5 C 339.5,249.833 339.5,251.167 339.5,252.5C 338.609,251.89 337.609,251.557 336.5,251.5C 335.833,251.5 335.5,251.167 335.5,250.5C 337.062,250.267 338.395,249.6 339.5,248.5 Z"/></g>
<g><path style="opacity:0.353" fill="#acacac" d="M 393.5,253.5 C 393.5,253.833 393.5,254.167 393.5,254.5C 391.06,252.427 390.894,250.094 393,247.5C 392.386,249.54 392.552,251.54 393.5,253.5 Z"/></g>
<g><path style="opacity:0.4" fill="#a1a1a1" d="M 341.5,249.5 C 341.409,251.698 342.075,252.031 343.5,250.5C 343.5,251.167 343.5,251.833 343.5,252.5C 341.965,253.354 340.632,253.354 339.5,252.5C 340.167,251.5 340.833,250.5 341.5,249.5 Z"/></g>
<g><path style="opacity:0.255" fill="#b3b3b3" d="M 345.5,254.5 C 345.5,254.167 345.5,253.833 345.5,253.5C 347.108,251.915 348.775,250.749 350.5,250C 349.589,252.415 347.922,253.915 345.5,254.5 Z"/></g>
<g><path style="opacity:0.722" fill="#646564" d="M 219.5,248.5 C 222.046,250.281 223.546,252.614 224,255.5C 221.674,253.934 219.508,252.268 217.5,250.5C 218.833,250.5 219.5,249.833 219.5,248.5 Z"/></g>
<g><path style="opacity:0.353" fill="#a4a4a4" d="M 326.5,249.5 C 326.5,250.167 326.5,250.833 326.5,251.5C 325.373,252.122 324.373,252.955 323.5,254C 321.934,254.765 320.601,254.598 319.5,253.5C 320.167,252.5 320.833,251.5 321.5,250.5C 321.351,251.552 321.517,252.552 322,253.5C 323.371,251.959 324.871,250.625 326.5,249.5 Z"/></g>
<g><path style="opacity:0.294" fill="#ababab" d="M 332.5,249.5 C 334.104,250.287 334.771,251.62 334.5,253.5C 333.833,253.833 333.167,254.167 332.5,254.5C 332.672,253.508 332.338,252.842 331.5,252.5C 331.557,251.391 331.89,250.391 332.5,249.5 Z"/></g>
<g><path style="opacity:0.92" fill="#3f3f3f" d="M 334.5,244.5 C 334.5,244.833 334.5,245.167 334.5,245.5C 334.629,247.216 334.962,248.883 335.5,250.5C 335.5,251.167 335.833,251.5 336.5,251.5C 337.085,254.261 336.085,255.927 333.5,256.5C 332.287,256.253 331.62,255.586 331.5,254.5C 331.833,254.5 332.167,254.5 332.5,254.5C 333.623,255.757 334.289,255.424 334.5,253.5C 334.771,251.62 334.104,250.287 332.5,249.5C 331.202,247.091 331.869,245.425 334.5,244.5 Z"/></g>
<g><path style="opacity:1" fill="#555555" d="M 386.5,240.5 C 388.972,239.065 390.638,239.899 391.5,243C 389.593,246.91 386.927,250.244 383.5,253C 385.833,253.333 388.167,253.667 390.5,254C 387.242,254.212 384.076,254.712 381,255.5C 380.5,255 380,254.5 379.5,254C 383.587,250.584 386.92,246.584 389.5,242C 388.756,240.961 387.756,240.461 386.5,240.5 Z"/></g>
<g><path style="opacity:1" fill="#444444" d="M 396.5,240.5 C 398.268,239.493 399.601,240.159 400.5,242.5C 399.478,245.12 399.478,247.787 400.5,250.5C 399.573,253.987 397.24,255.32 393.5,254.5C 393.5,254.167 393.5,253.833 393.5,253.5C 396.127,253.707 397.793,252.54 398.5,250C 396.581,246.834 395.914,243.667 396.5,240.5 Z"/></g>
<g><path style="opacity:0.999" fill="#212221" d="M 130.5,276.5 C 129.596,277.209 129.263,278.209 129.5,279.5C 128.662,279.842 128.328,280.508 128.5,281.5C 128.5,282.167 128.5,282.833 128.5,283.5C 127.833,283.5 127.5,283.833 127.5,284.5C 127.5,284.833 127.5,285.167 127.5,285.5C 126.833,285.5 126.5,285.833 126.5,286.5C 126.5,286.833 126.5,287.167 126.5,287.5C 125.5,287.833 124.833,288.5 124.5,289.5C 124.5,289.833 124.5,290.167 124.5,290.5C 123.508,290.328 122.842,290.662 122.5,291.5C 116.149,291.818 112.482,288.818 111.5,282.5C 111.263,281.209 111.596,280.209 112.5,279.5C 112.328,280.492 112.662,281.158 113.5,281.5C 113.833,282.833 114.167,282.833 114.5,281.5C 114.672,280.508 114.338,279.842 113.5,279.5C 113.5,279.167 113.5,278.833 113.5,278.5C 113.5,274.167 113.5,269.833 113.5,265.5C 113.5,265.167 113.5,264.833 113.5,264.5C 114.622,262.948 115.122,261.282 115,259.5C 113.628,260.91 112.795,262.577 112.5,264.5C 112.5,264.833 112.5,265.167 112.5,265.5C 111.596,266.209 111.263,267.209 111.5,268.5C 111.5,269.167 111.5,269.833 111.5,270.5C 110.549,269.081 110.216,267.415 110.5,265.5C 111.015,260.636 113.015,256.469 116.5,253C 119.303,252.245 121.97,252.578 124.5,254C 129.086,260.747 131.086,268.247 130.5,276.5 Z M 121.5,265.5 C 122.589,269.078 122.755,272.745 122,276.5C 121.184,277.823 120.017,278.489 118.5,278.5C 117.662,278.158 117.328,277.492 117.5,276.5C 118.88,277.706 120.047,277.373 121,275.5C 121.818,272.773 121.652,270.106 120.5,267.5C 119.473,266.209 118.473,266.209 117.5,267.5C 117.958,264.691 119.291,264.024 121.5,265.5 Z"/></g>
<g><path style="opacity:0.82" fill="#717171" d="M 328.5,250.5 C 327.956,254.64 328.956,255.307 331.5,252.5C 331.5,253.167 331.5,253.833 331.5,254.5C 329.078,257.446 327.411,257.113 326.5,253.5C 327.167,252.5 327.833,251.5 328.5,250.5 Z"/></g>
<g><path style="opacity:0.235" fill="#a4a4a4" d="M 362.5,252.5 C 364.631,253.314 366.964,253.814 369.5,254C 366.518,254.498 363.518,254.665 360.5,254.5C 360.833,253.5 361.5,252.833 362.5,252.5 Z"/></g>
<g><path style="opacity:0.514" fill="#787878" d="M 69.5,256.5 C 68.5084,256.328 67.8417,256.662 67.5,257.5C 67.44,258.043 67.1067,258.376 66.5,258.5C 65.3044,258.154 65.3044,257.654 66.5,257C 65.9056,256.536 65.2389,256.369 64.5,256.5C 67.2145,254.764 70.2145,253.93 73.5,254C 71.9336,254.608 70.6002,255.442 69.5,256.5 Z"/></g>
<g><path style="opacity:0.949" fill="#5b5c5b" d="M 228.5,253.5 C 229.167,253.5 229.5,253.833 229.5,254.5C 230.167,254.5 230.5,254.833 230.5,255.5C 231.167,255.5 231.5,255.833 231.5,256.5C 230.167,256.833 230.167,257.167 231.5,257.5C 232.167,257.5 232.5,257.833 232.5,258.5C 231.167,258.833 231.167,259.167 232.5,259.5C 233.167,259.5 233.5,259.833 233.5,260.5C 232.167,260.833 232.167,261.167 233.5,261.5C 234.167,261.5 234.5,261.833 234.5,262.5C 233.167,263.5 233.167,264.5 234.5,265.5C 234.664,268.187 234.497,270.854 234,273.5C 232.293,267.003 230.126,260.67 227.5,254.5C 227.624,253.893 227.957,253.56 228.5,253.5 Z"/></g>
<g><path style="opacity:0.376" fill="#a1a1a1" d="M 113.5,264.5 C 113.167,264.5 112.833,264.5 112.5,264.5C 112.795,262.577 113.628,260.91 115,259.5C 115.122,261.282 114.622,262.948 113.5,264.5 Z"/></g>
<g><path style="opacity:0.204" fill="#afafaf" d="M 194.5,244.5 C 195.451,245.919 195.784,247.585 195.5,249.5C 194.266,251.048 194.266,251.715 195.5,251.5C 196.629,253.628 196.796,255.961 196,258.5C 195.103,254.586 194.603,254.752 194.5,259C 196.88,265.307 195.213,270.14 189.5,273.5C 183.348,272.803 177.348,271.47 171.5,269.5C 168.189,264.235 165.856,258.568 164.5,252.5C 163.596,251.791 163.263,250.791 163.5,249.5C 162.662,249.158 162.328,248.492 162.5,247.5C 162.833,247.5 163.167,247.5 163.5,247.5C 164.167,247.5 164.5,247.167 164.5,246.5C 165.924,248.515 166.59,250.848 166.5,253.5C 167.379,257.28 168.879,260.947 171,264.5C 172.422,266.638 174.255,267.805 176.5,268C 174.89,263.283 174.056,258.45 174,253.5C 175.234,257.715 176.734,261.715 178.5,265.5C 178.328,266.492 178.662,267.158 179.5,267.5C 180.122,268.627 180.955,269.627 182,270.5C 181.25,265.231 180.416,259.898 179.5,254.5C 181.803,259.106 184.136,263.773 186.5,268.5C 187.242,269.287 188.075,269.953 189,270.5C 189.789,268.288 189.622,266.288 188.5,264.5C 188.5,262.5 188.5,260.5 188.5,258.5C 189.833,257.5 189.833,256.5 188.5,255.5C 188.5,254.833 188.5,254.167 188.5,253.5C 189.167,253.5 189.5,253.167 189.5,252.5C 190.776,255.03 190.776,257.697 189.5,260.5C 190.18,262.889 191.014,265.222 192,267.5C 193.759,259.313 193.592,251.146 191.5,243C 191.944,241.238 192.444,241.405 193,243.5C 193.634,249.134 194.134,249.468 194.5,244.5 Z M 179.5,254.5 C 180.416,259.898 181.25,265.231 182,270.5C 180.955,269.627 180.122,268.627 179.5,267.5C 179.247,263.2 179.247,258.867 179.5,254.5 Z"/></g>
<g><path style="opacity:0.467" fill="#8b8c8b" d="M 170.5,248.5 C 171.895,252.591 172.562,256.924 172.5,261.5C 171.055,258.063 170.055,254.397 169.5,250.5C 170.338,250.158 170.672,249.492 170.5,248.5 Z"/></g>
<g><path style="opacity:0.8" fill="#727372" d="M 185.5,254.5 C 186.5,257.833 187.5,261.167 188.5,264.5C 188.657,265.873 188.49,267.207 188,268.5C 186.726,264.846 185.56,261.18 184.5,257.5C 185.404,256.791 185.737,255.791 185.5,254.5 Z"/></g>
<g><path style="opacity:0.443" fill="#8e8e8e" d="M 176.5,248.5 C 177.158,250.639 178.158,252.639 179.5,254.5C 179.247,258.867 179.247,263.2 179.5,267.5C 179.672,266.508 179.338,265.842 178.5,265.5C 177.815,260.761 176.815,256.094 175.5,251.5C 176.404,250.791 176.737,249.791 176.5,248.5 Z"/></g>
<g><path style="opacity:0.537" fill="#858585" d="M 98.5,262.5 C 99.0431,262.56 99.3764,262.893 99.5,263.5C 94.8894,268.618 94.5561,268.285 98.5,262.5 Z"/></g>
<g><path style="opacity:0.989" fill="#333433" d="M 117.5,276.5 C 117.5,273.5 117.5,270.5 117.5,267.5C 118.473,266.209 119.473,266.209 120.5,267.5C 121.652,270.106 121.818,272.773 121,275.5C 120.047,277.373 118.88,277.706 117.5,276.5 Z"/></g>
<g><path style="opacity:0.133" fill="#aaaaaa" d="M 155.5,270.5 C 154.508,270.328 153.842,270.662 153.5,271.5C 152.527,271.013 151.527,270.513 150.5,270C 152.387,269.22 154.054,269.387 155.5,270.5 Z"/></g>
<g><path style="opacity:0.325" fill="#8e8f8e" d="M 213.5,268.5 C 216.167,269.167 218.833,269.833 221.5,270.5C 218.428,270.817 215.428,270.484 212.5,269.5C 212.624,268.893 212.957,268.56 213.5,268.5 Z"/></g>
<g><path style="opacity:0.192" fill="#adadad" d="M 136.5,265.5 C 137.892,267.273 139.059,269.273 140,271.5C 140.333,270.5 140.667,269.5 141,268.5C 143.593,271.543 146.76,273.71 150.5,275C 161.118,276.208 171.785,276.875 182.5,277C 189.581,279.771 196.914,280.937 204.5,280.5C 202.105,281.766 199.438,282.432 196.5,282.5C 190.764,281.311 185.097,279.811 179.5,278C 171.661,277.544 163.828,277.711 156,278.5C 153.167,278.333 150.333,278.167 147.5,278C 145.256,275.651 144.089,276.151 144,279.5C 140.183,275.532 137.683,270.865 136.5,265.5 Z"/></g>
<g><path style="opacity:0.167" fill="#a6a6a6" d="M 226.5,271.5 C 227.922,271.709 229.255,272.209 230.5,273C 224.175,273.5 217.842,273.666 211.5,273.5C 216.5,272.833 221.5,272.167 226.5,271.5 Z"/></g>
<g><path style="opacity:0.996" fill="#333333" d="M 28.5,289.5 C 29.1667,290.167 29.8333,290.833 30.5,291.5C 28.3202,293.744 26.1535,293.411 24,290.5C 21.8016,284.683 22.1349,279.017 25,273.5C 28.4509,271.83 30.9509,272.83 32.5,276.5C 30.8598,276.153 29.1932,276.653 27.5,278C 31.168,281.517 31.5013,285.35 28.5,289.5 Z"/></g>
<g><path style="opacity:0.812" fill="#717171" d="M 241.5,269.5 C 242.308,271.22 243.308,272.887 244.5,274.5C 243.662,274.842 243.328,275.508 243.5,276.5C 242.26,275.341 240.926,274.341 239.5,273.5C 241.176,272.817 241.843,271.483 241.5,269.5 Z"/></g>
<g><path style="opacity:0.122" fill="#bbbbbb" d="M 89.5,272.5 C 88.9202,274.749 87.5869,276.415 85.5,277.5C 86.0798,275.251 87.4131,273.585 89.5,272.5 Z"/></g>
<g><path style="opacity:0.935" fill="#595a59" d="M 110.5,265.5 C 110.216,267.415 110.549,269.081 111.5,270.5C 112.414,276.098 112.414,275.432 111.5,268.5C 111.263,267.209 111.596,266.209 112.5,265.5C 112.833,265.5 113.167,265.5 113.5,265.5C 113.5,269.833 113.5,274.167 113.5,278.5C 112.833,278.5 112.5,278.833 112.5,279.5C 111.596,280.209 111.263,281.209 111.5,282.5C 109.45,276.91 109.117,271.244 110.5,265.5 Z"/></g>
<g><path style="opacity:0.241" fill="#b0b0b0" d="M 235.5,276.5 C 230.821,276.334 226.155,276.501 221.5,277C 215.939,278.64 210.273,279.806 204.5,280.5C 212.884,276.056 221.884,274.223 231.5,275C 233.058,275.21 234.391,275.71 235.5,276.5 Z"/></g>
<g><path style="opacity:0.186" fill="#a9a9a9" d="M 54.5,276.5 C 55.9187,277.451 57.5853,277.784 59.5,277.5C 55.6888,278.645 51.6888,278.812 47.5,278C 49.74,277.023 52.0733,276.523 54.5,276.5 Z"/></g>
<g><path style="opacity:0.51" fill="#979897" d="M 65.5,278.5 C 64.791,277.596 63.791,277.263 62.5,277.5C 65.3205,276.363 68.3205,275.863 71.5,276C 69.7128,277.319 67.7128,278.152 65.5,278.5 Z"/></g>
<g><path style="opacity:0.631" fill="#858585" d="M 78.5,276.5 C 78.0269,277.906 77.0269,278.573 75.5,278.5C 75.9731,277.094 76.9731,276.427 78.5,276.5 Z"/></g>
<g><path style="opacity:0.075" fill="#b3b3b3" d="M 84.5,276.5 C 84.573,278.027 83.9063,279.027 82.5,279.5C 82.427,277.973 83.0937,276.973 84.5,276.5 Z"/></g>
<g><path style="opacity:0.259" fill="#b5b5b5" d="M 121.5,265.5 C 122.794,267.048 123.461,269.048 123.5,271.5C 123.333,273.5 123.167,275.5 123,277.5C 121.653,279.466 120.153,279.799 118.5,278.5C 120.017,278.489 121.184,277.823 122,276.5C 122.755,272.745 122.589,269.078 121.5,265.5 Z"/></g>
<g><path style="opacity:0.404" fill="#8b8b8b" d="M 248.5,283.5 C 248.445,280.791 247.778,278.791 246.5,277.5C 247.222,277.082 247.722,276.416 248,275.5C 249.743,278.156 249.909,280.822 248.5,283.5 Z"/></g>
<g><path style="opacity:0.922" fill="#4a4b4a" d="M 15.5,273.5 C 15.3433,274.873 15.51,276.207 16,277.5C 16.3333,276.833 16.6667,276.167 17,275.5C 17.1805,277.488 17.0138,279.488 16.5,281.5C 15.5,281.5 14.5,281.5 13.5,281.5C 13.5651,278.572 14.2318,275.905 15.5,273.5 Z"/></g>
<g><path style="opacity:0.435" fill="#929392" d="M 112.5,279.5 C 112.833,279.5 113.167,279.5 113.5,279.5C 114.338,279.842 114.672,280.508 114.5,281.5C 114.167,281.5 113.833,281.5 113.5,281.5C 112.662,281.158 112.328,280.492 112.5,279.5 Z"/></g>
<g><path style="opacity:0.353" fill="#a6a7a6" d="M 81.5,279.5 C 80.5637,280.974 79.2303,281.974 77.5,282.5C 78.0347,280.554 79.368,279.554 81.5,279.5 Z"/></g>
<g><path style="opacity:0.201" fill="#aaaaaa" d="M 127.5,253.5 C 130.768,257.111 132.601,261.445 133,266.5C 134.461,276.494 131.961,285.327 125.5,293C 122.106,294.684 118.772,294.851 115.5,293.5C 118.228,293.829 120.562,293.163 122.5,291.5C 123.492,291.672 124.158,291.338 124.5,290.5C 125.833,290.167 125.833,289.833 124.5,289.5C 124.833,288.5 125.5,287.833 126.5,287.5C 127.833,287.167 127.833,286.833 126.5,286.5C 126.5,285.833 126.833,285.5 127.5,285.5C 128.833,285.167 128.833,284.833 127.5,284.5C 127.5,283.833 127.833,283.5 128.5,283.5C 129.833,282.833 129.833,282.167 128.5,281.5C 128.328,280.508 128.662,279.842 129.5,279.5C 130.507,279.548 130.84,278.548 130.5,276.5C 132.008,268.658 131.008,260.992 127.5,253.5 Z"/></g>
<g><path style="opacity:0.282" fill="#9d9e9d" d="M 16.5,288.5 C 15.8333,287.167 15.1667,285.833 14.5,284.5C 14.7828,283.711 15.2828,283.044 16,282.5C 16.4955,284.473 16.6621,286.473 16.5,288.5 Z"/></g>
<g><path style="opacity:0.216" fill="#adaead" d="M 75.5,278.5 C 65.304,285.382 53.9707,288.216 41.5,287C 39.5087,286.626 37.842,285.793 36.5,284.5C 42.805,285.487 49.1383,285.653 55.5,285C 62.2845,283.127 68.9512,280.961 75.5,278.5 Z"/></g>
<g><path style="opacity:0.416" fill="#909090" d="M 76.5,281.5 C 74.0793,284.815 70.746,286.315 66.5,286C 69.9779,284.76 73.3113,283.26 76.5,281.5 Z"/></g>
<g><path style="opacity:0.22" fill="#aeaeae" d="M 36.5,284.5 C 34.9724,285.802 33.9724,287.469 33.5,289.5C 33.5,287.5 33.5,285.5 33.5,283.5C 34.791,283.263 35.791,283.596 36.5,284.5 Z"/></g>
<g><path style="opacity:0.071" fill="#bcbcbc" d="M 28.5,289.5 C 29.675,289.281 30.675,289.614 31.5,290.5C 31.3764,291.107 31.0431,291.44 30.5,291.5C 29.8333,290.833 29.1667,290.167 28.5,289.5 Z"/></g>
<g><path style="opacity:0.329" fill="#878887" d="M 23.5,294.5 C 25.0418,295.301 26.7085,295.634 28.5,295.5C 27.9032,296.139 27.0698,296.472 26,296.5C 24.6244,296.316 23.7911,295.649 23.5,294.5 Z"/></g>
<g><path style="opacity:0.051" fill="#b7b8b7" d="M 130.5,293.5 C 130.278,296.076 128.945,296.91 126.5,296C 127.984,295.338 129.317,294.504 130.5,293.5 Z"/></g>
<g><path style="opacity:0.596" fill="#828282" d="M 32.5,296.5 C 34.3786,296.393 34.7119,296.893 33.5,298C 32.1667,298.667 30.8333,298.667 29.5,298C 30.7375,297.768 31.7375,297.268 32.5,296.5 Z"/></g>
</svg>
